<svg width="110" height="85" viewBox="0 0 110 85" fill="none" xmlns="http://www.w3.org/2000/svg">
<g clip-path="url(#clip0_297_1516)">
<path d="M110 84.5508H0V3.97009e-05H110V84.5508Z" fill="#152849"/>
<path d="M95.0305 46.6545C93.6546 46.8784 92.8862 46.9596 92.1314 46.9596C90.324 46.9596 87.7385 46.4334 85.0285 45.5157L80.9668 44.139C78.8161 43.4111 75.618 42.8121 73.8611 42.8121C72.1195 42.8121 68.9098 43.4126 66.7679 44.139L62.7052 45.5157C59.9975 46.4334 57.4093 46.9596 55.6019 46.9596C53.7936 46.9596 51.2052 46.4334 48.4961 45.5157L44.4345 44.139C42.2894 43.4126 39.0819 42.8121 37.338 42.8121C35.5862 42.813 32.3816 43.4111 30.2355 44.139L26.1734 45.5157C23.4629 46.4334 20.8774 46.9596 19.07 46.9596C18.316 46.9596 17.5477 46.8784 16.1719 46.6545L16.3399 46.9371C16.7303 47.5881 16.9366 47.8698 17.4628 48.4763C18.1757 48.5743 18.4607 48.5957 19.0318 48.5957C20.8442 48.5957 23.8048 48.0284 26.1734 47.2307L30.2355 45.8586C32.9918 44.9288 35.519 44.4141 37.338 44.4141C38.8748 44.4141 41.5606 44.9073 43.4244 45.532L48.4961 47.2307C50.8908 48.0308 53.8268 48.5957 55.6033 48.5957C57.3807 48.5957 60.3148 48.0298 62.7052 47.2307L67.7779 45.532C69.6413 44.9073 72.3298 44.4141 73.8657 44.4141C75.6876 44.4156 78.2086 44.9288 80.9668 45.8586L85.0285 47.2307C87.3956 48.0284 90.3577 48.5957 92.1678 48.5957C92.7369 48.5957 93.0244 48.5743 93.7447 48.4763C94.3115 47.804 94.4827 47.5689 94.8616 46.9371L95.0305 46.6545Z" fill="white"/>
<path d="M88.9725 52.3688L83.0597 50.5526C80.4005 49.7357 79.3722 49.4493 77.9554 49.1366C76.4549 48.8045 74.9514 48.6133 73.8634 48.6133C72.1484 48.6133 68.8766 49.2239 66.7679 49.9377L62.7053 51.3145C59.957 52.2457 57.426 52.7593 55.5799 52.7593C53.725 52.7593 51.2184 52.2499 48.456 51.3145L44.3944 49.9377C42.2908 49.2249 39.0072 48.6133 37.29 48.6133C36.2091 48.6133 34.6919 48.8069 33.2017 49.1366C31.8003 49.4469 30.689 49.7548 28.097 50.5526L22.1907 52.3688C22.8219 52.9427 22.9888 53.0756 23.6961 53.5548L26.98 52.555L29.6925 51.754L30.7818 51.432C33.6678 50.5806 35.6254 50.2154 37.2937 50.2154C38.809 50.2154 41.55 50.7173 43.3782 51.3312L48.456 53.0355C50.8339 53.8319 53.7796 54.3945 55.5809 54.3945C57.3765 54.3945 60.3479 53.8277 62.7053 53.0355L67.7779 51.3312C69.5978 50.7201 72.3555 50.2139 73.8657 50.2154C75.5396 50.2154 77.4813 50.5778 80.3743 51.432L81.4637 51.754L84.1771 52.555L87.4661 53.5548C88.17 53.0715 88.3376 52.9403 88.9725 52.3688Z" fill="white"/>
<path d="M82.3543 56.216L81.982 56.0807L80.9669 55.742C78.0207 54.8533 75.6629 54.4106 73.8619 54.4106C72.3541 54.4106 69.8022 54.8443 67.7779 55.4434L66.7679 55.742C66.2552 55.9114 65.9132 56.0234 65.7466 56.0807L64.7315 56.4306L63.7214 56.7745L62.7053 57.1197C59.6225 58.1172 57.426 58.5636 55.6019 58.5636C54.0297 58.5636 51.6994 58.1334 49.5114 57.4407L48.4962 57.1197L47.4815 56.7745L46.4705 56.4306L45.4548 56.0807L44.4345 55.742C41.4921 54.8533 39.1281 54.4106 37.3381 54.4106C35.8205 54.4119 33.2722 54.8435 31.2442 55.4434L30.2356 55.742C29.5157 55.9743 29.3674 56.0261 28.8467 56.216L30.8892 57.276L31.3469 57.137C33.728 56.4013 35.7789 56.0178 37.3432 56.0178C38.6589 56.0178 40.7162 56.3531 42.4083 56.8421L43.4245 57.137L44.4345 57.464L45.4548 57.8013L46.4705 58.1521L47.4815 58.495L48.4962 58.8342C51.5449 59.7696 53.7889 60.2002 55.6034 60.1992C57.1602 60.1979 59.539 59.7841 61.6906 59.1384L62.7053 58.8342L63.7214 58.495L64.7315 58.1521L65.7466 57.8013L66.7679 57.464L67.7779 57.137C70.369 56.3676 72.2782 56.0178 73.8658 56.0191C75.43 56.0191 77.4772 56.4021 79.8565 57.137L80.3132 57.276L82.3543 56.216" fill="white"/>
<path d="M24.3572 32.2237V36.6703C23.3425 37.0957 22.3282 37.3089 21.3177 37.3089C18.7127 37.3089 16.8815 35.2968 16.8815 32.4341C16.8815 29.3504 19.07 27.2006 22.2107 27.2006C23.9672 27.2006 25.7059 27.6899 27.8142 28.777V25.8211C25.1204 24.72 23.7908 24.406 21.8006 24.406C16.3011 24.406 12.7886 27.5169 12.7886 32.3874C12.7886 37.0211 16.1966 40.1025 21.3211 40.1025C23.6052 40.1025 26.3143 39.3686 28.2886 38.2144V32.2237H24.3572" fill="white"/>
<path d="M31.5498 24.8388V39.6699H35.4197V27.6376H37.089C39.276 27.6376 40.2571 28.3354 40.2571 29.8909C40.2571 31.4803 39.1604 32.3878 37.2345 32.3878L36.3845 32.3654H35.9492L41.3261 39.6699H46.2731L41.3423 33.7071C43.1734 32.8809 44.1499 31.4137 44.1499 29.4859C44.1499 26.3447 42.114 24.8388 37.8677 24.8388H31.5498" fill="white"/>
<path d="M67.5637 24.8388V39.6699H71.4327V33.3293H78.2702V39.6699H82.1401V24.8388H78.2702V30.3219H71.4327V24.8388H67.5637" fill="white"/>
<path d="M86.2708 24.8388V39.6699H97.4003V36.7648H90.1341V33.2402H95.4773V30.4465H90.1341V27.7448H96.5536V24.8388H86.2708" fill="white"/>
<path fill-rule="evenodd" clip-rule="evenodd" d="M50.6399 32.2586C50.6399 29.1963 52.7108 27.0615 55.6822 27.0615C58.6549 27.0615 60.7258 29.1981 60.7258 32.2595C60.7258 35.3134 58.6484 37.4539 55.6822 37.4539C52.7169 37.4539 50.6384 35.3125 50.6399 32.2586V32.2586ZM46.5605 32.2586C46.5605 36.8665 50.4211 40.2471 55.6822 40.2471C60.9456 40.2471 64.8056 36.8656 64.8056 32.2586C64.8056 27.6404 60.9526 24.2646 55.6822 24.2646C50.4131 24.2646 46.5605 27.6404 46.5605 32.2586" fill="white"/>
</g>
<defs>
<clipPath id="clip0_297_1516">
<rect width="110" height="84.5507" fill="white"/>
</clipPath>
</defs>
</svg>
